<svg width="118" height="37" viewBox="0 0 118 37" fill="none" xmlns="http://www.w3.org/2000/svg">
<g clip-path="url(#clip0_1_32)">
<path d="M114.132 12.155L111.436 17.9865L108.717 12.155H104.842L109.697 21.4801V26.0812H113.115V21.4801L117.97 12.155H114.132ZM104.32 26.0812L98.6873 18.9783L104.121 12.155H100.107L95.4316 18.2661V12.155H92.0144V26.0812H95.4316V19.9328L100.148 26.0812H104.324H104.32ZM82.4013 14.9738H84.5192C85.1463 14.9738 85.6157 15.1267 85.9274 15.4287C86.239 15.7344 86.3968 16.1483 86.3968 16.6778C86.3968 17.2333 86.239 17.6621 85.9274 17.9678C85.6157 18.2736 85.1463 18.4227 84.5192 18.4227H82.4013V14.9701V14.9738ZM89.9942 26.0812L86.7573 20.5667C87.7824 20.2609 88.5597 19.7464 89.0854 19.0193C89.6112 18.2922 89.874 17.4645 89.874 16.5398C89.874 15.7195 89.6825 14.9775 89.2957 14.3064C88.9089 13.639 88.3269 13.1133 87.5458 12.7292C86.7648 12.3452 85.826 12.155 84.7182 12.155H78.9841V26.0812H82.4013V20.8239H83.2199L86.1377 26.0812H89.9942Z" fill="white"/>
<path d="M77.7151 19.8023V18.0424C77.2908 18.0238 76.9791 17.9343 76.7763 17.7628C76.5773 17.595 76.4759 17.3564 76.4759 17.0469C76.4759 16.8157 76.521 16.3534 76.6073 15.6636C76.6148 15.5965 76.6411 15.3728 76.6862 14.9962C76.7312 14.6196 76.75 14.284 76.75 13.982C76.75 13.2512 76.5247 12.677 76.0741 12.2706C75.6235 11.8605 75.0189 11.6554 74.2641 11.6554H73.3253V13.4637H73.8323C74.1102 13.4637 74.3092 13.5234 74.4293 13.6464C74.5495 13.7658 74.6133 13.9522 74.6133 14.202C74.6133 14.3922 74.5796 14.8209 74.5082 15.4958C74.4293 16.331 74.3918 16.8791 74.3918 17.1364C74.3918 17.6099 74.5082 18.0014 74.7373 18.3146C74.9663 18.6241 75.3156 18.8217 75.7849 18.9074V18.9335C75.3156 19.0268 74.9663 19.2281 74.7373 19.5338C74.5082 19.8396 74.3918 20.2348 74.3918 20.7158C74.3918 20.9731 74.4293 21.5212 74.5082 22.3564C74.5758 23.0126 74.6133 23.4376 74.6133 23.6352C74.6133 23.8851 74.5533 24.0715 74.4293 24.1983C74.3092 24.3213 74.1064 24.3847 73.8323 24.3847H73.3253V26.193H74.2641C75.0189 26.193 75.6235 25.988 76.0741 25.5778C76.5247 25.1677 76.75 24.5935 76.75 23.8515C76.75 23.5495 76.7275 23.2102 76.6862 22.8373C76.6411 22.4608 76.6148 22.2408 76.6073 22.1699C76.521 21.4801 76.4759 21.0178 76.4759 20.7866C76.4759 20.4921 76.5773 20.2572 76.7763 20.0819C76.9753 19.9067 77.287 19.8097 77.7151 19.7911M61.4929 19.8023C61.9172 19.8209 62.2289 19.9179 62.4317 20.0931C62.6307 20.2684 62.7321 20.5033 62.7321 20.7978C62.7321 21.029 62.6871 21.4913 62.6007 22.1811C62.5932 22.252 62.5669 22.4719 62.5218 22.8485C62.4768 23.2251 62.458 23.5607 62.458 23.8627C62.458 24.6047 62.6833 25.1789 63.1339 25.589C63.5845 25.9992 64.1891 26.2042 64.9439 26.2042H65.8827V24.3959H65.3757C65.0978 24.3959 64.8988 24.3325 64.7787 24.2094C64.6585 24.0827 64.5947 23.8962 64.5947 23.6464C64.5947 23.4488 64.6285 23.02 64.6998 22.3675C64.7787 21.5323 64.8162 20.9842 64.8162 20.727C64.8162 20.246 64.6998 19.8508 64.4707 19.545C64.2417 19.2393 63.8924 19.0379 63.4231 18.9447V18.9186C63.8924 18.8329 64.2417 18.6353 64.4707 18.3258C64.6998 18.0163 64.8162 17.6248 64.8162 17.1476C64.8162 16.8903 64.7787 16.3422 64.6998 15.507C64.6322 14.8359 64.5947 14.4033 64.5947 14.2132C64.5947 13.9634 64.6547 13.7769 64.7787 13.6576C64.8988 13.5383 65.1016 13.4749 65.3757 13.4749H65.8827V11.6666H64.9439C64.1891 11.6666 63.5845 11.8717 63.1339 12.2818C62.6833 12.6919 62.458 13.2624 62.458 13.9932C62.458 14.2952 62.4805 14.6345 62.5218 15.0074C62.5669 15.384 62.5932 15.6039 62.6007 15.6748C62.6871 16.3646 62.7321 16.8269 62.7321 17.0581C62.7321 17.3675 62.6307 17.6062 62.4317 17.774C62.2327 17.9417 61.921 18.035 61.4929 18.0536V19.8135M67.8954 26.4801H71.3126V15.4101H67.8954V26.4801Z" fill="white"/>
<path d="M71.0647 14.5197C70.6854 14.8702 70.201 15.0454 69.6152 15.0454C69.0181 15.0454 68.5262 14.8702 68.147 14.5197C67.7677 14.1692 67.5762 13.7479 67.5762 13.2184C67.5762 12.689 67.7677 12.249 68.147 11.8985C68.5262 11.548 69.0294 11.3728 69.6152 11.3728C70.201 11.3728 70.6854 11.548 71.0647 11.8985C71.444 12.249 71.6355 12.7002 71.6355 13.2184C71.6355 13.7367 71.444 14.1692 71.0647 14.5197Z" fill="#FDBB30"/>
<path d="M57.2833 12.155L55.2443 22.293L52.8448 12.155H49.0896L46.5925 22.293L44.576 12.155H40.9185L44.4746 26.0812H48.609L50.9296 16.9164L53.1677 26.0812H57.3021L60.9596 12.155H57.2833Z" fill="white"/>
</g>
<path d="M18.6687 0.625C28.4545 0.625 36.3875 8.55795 36.3875 18.3438C36.3875 28.1295 28.4545 36.0625 18.6687 36.0625C8.88291 36.0625 0.949951 28.1295 0.949951 18.3438C0.949951 8.55795 8.88291 0.625 18.6687 0.625ZM10.5076 16.0859C9.6111 14.5487 7.63756 14.0271 6.10034 14.9219C4.55737 15.8138 4.03682 17.7841 4.93042 19.3213L10.6345 29.1094C11.5311 30.6464 13.5046 31.1682 15.0417 30.2734C16.5818 29.3786 17.1052 27.4084 16.2087 25.874L14.7742 23.416C15.0931 22.5528 15.6109 21.7646 16.2947 21.1279L20.9666 29.1465C21.863 30.6837 23.8366 31.2052 25.3738 30.3105C26.9139 29.4157 27.4372 27.4455 26.5408 25.9111L20.8376 16.123C19.9642 14.626 18.0705 14.0955 16.5505 14.8955H16.5564C14.7979 15.7874 13.433 17.9846 12.9158 20.2188L10.5076 16.0859ZM25.9919 7.18652C25.0955 5.6493 23.121 5.12766 21.5837 6.02246C20.044 6.9174 19.5213 8.88768 20.4177 10.4219L26.1208 20.21C27.0173 21.7472 28.9918 22.2688 30.5291 21.374C32.0689 20.4791 32.5915 18.5089 31.6951 16.9746L25.9919 7.18652Z" fill="white"/>
<path d="M17.1243 11.5584C17.5839 9.84638 16.566 8.08663 14.8508 7.62789C13.1356 7.16916 11.3726 8.18515 10.913 9.89717C10.4534 11.6092 11.4713 13.3689 13.1865 13.8277C14.9017 14.2864 16.6647 13.2704 17.1243 11.5584Z" fill="#FDBB30"/>
<defs>
<clipPath id="clip0_1_32">
<rect width="77.0478" height="15.8911" fill="white" transform="translate(40.9185 10.589)"/>
</clipPath>
</defs>
</svg>
