<svg width="463" height="121" viewBox="0 0 463 121" fill="none" xmlns="http://www.w3.org/2000/svg">
<path d="M89.3 31.09C83.15 13.01 66.03 0 45.87 0C20.53 0 0 20.53 0 45.87C0 66.03 13.01 83.14 31.09 89.3C37.24 107.38 54.36 120.39 74.52 120.39C99.86 120.39 120.39 99.86 120.39 74.52C120.39 54.36 107.38 37.25 89.3 31.09ZM103 103H46.05V74.52H45.87V74.34H17.39V17.4H74.34V45.88H74.52V46.06H103V103.01V103Z" fill="#F2B705"/>
<path d="M211.3 90.66H205.03C202.59 90.66 200.69 90.34 199.33 89.7C197.97 89.06 196.7 88.02 195.54 86.57C190.72 89.65 185.15 91.18 178.83 91.18C172.97 91.18 167.75 89.85 163.16 87.18C158.57 84.51 155.01 80.81 152.45 76.08C149.9 71.35 148.62 66.05 148.62 60.19C148.62 54.33 149.9 49.03 152.45 44.3C155 39.57 158.57 35.87 163.16 33.2C167.74 30.53 172.97 29.2 178.83 29.2C184.69 29.2 189.91 30.53 194.5 33.2C199.08 35.87 202.65 39.57 205.21 44.3C207.76 49.03 209.04 54.32 209.04 60.19C209.04 67.44 207.12 73.77 203.29 79.17C203.87 79.46 204.54 79.61 205.29 79.61H211.3V90.67V90.66ZM169.95 77.56C172.5 79.27 175.46 80.13 178.83 80.13C182.2 80.13 185.42 79.17 188.14 77.26L187.27 76.21C186.57 75.28 185.91 74.6 185.27 74.16C184.63 73.72 183.85 73.51 182.92 73.51H177.26V62.45H183.88C186.2 62.45 187.97 62.8 189.19 63.5C190.41 64.2 191.63 65.33 192.85 66.89L194.24 68.72C195.17 66.17 195.63 63.32 195.63 60.19C195.63 56.36 194.93 52.94 193.54 49.92C192.15 46.9 190.17 44.54 187.62 42.83C185.07 41.12 182.14 40.26 178.83 40.26C175.52 40.26 172.5 41.12 169.95 42.83C167.4 44.54 165.42 46.91 164.03 49.92C162.64 52.94 161.94 56.36 161.94 60.19C161.94 64.02 162.64 67.44 164.03 70.46C165.42 73.48 167.4 75.84 169.95 77.55V77.56Z" fill="#DEDEDE"/>
<path d="M235.16 29.73H250.83L272.94 90.66H258.93L254.23 77.34H231.07L226.37 90.66H212.88L235.16 29.73ZM250.65 66.81L242.55 43.66L234.54 66.81H250.64H250.65Z" fill="#DEDEDE"/>
<path d="M278.51 29.73H291.57V79.43H315.77V90.66H278.51V29.73Z" fill="#DEDEDE"/>
<path d="M335.88 29.73V90.66H322.82V29.73H335.88Z" fill="#DEDEDE"/>
<path d="M389.67 87.18C385.08 89.85 379.86 91.18 374 91.18C368.14 91.18 362.92 89.85 358.33 87.18C353.75 84.51 350.18 80.81 347.62 76.08C345.07 71.35 343.79 66.05 343.79 60.19C343.79 54.33 345.07 49.03 347.62 44.3C350.17 39.57 353.74 35.87 358.33 33.2C362.92 30.53 368.14 29.2 374 29.2C379.86 29.2 385.08 30.53 389.67 33.2C394.25 35.87 397.82 39.57 400.38 44.3C402.93 49.03 404.21 54.32 404.21 60.19C404.21 66.06 402.93 71.35 400.38 76.08C397.83 80.81 394.26 84.51 389.67 87.18ZM365.12 77.56C367.67 79.27 370.63 80.13 374 80.13C377.37 80.13 380.24 79.27 382.79 77.56C385.34 75.85 387.32 73.48 388.71 70.47C390.1 67.45 390.8 64.03 390.8 60.2C390.8 56.37 390.1 52.95 388.71 49.93C387.32 46.91 385.34 44.55 382.79 42.84C380.24 41.13 377.31 40.27 374 40.27C370.69 40.27 367.68 41.13 365.12 42.84C362.57 44.55 360.59 46.92 359.2 49.93C357.81 52.95 357.11 56.37 357.11 60.2C357.11 64.03 357.81 67.45 359.2 70.47C360.59 73.49 362.57 75.85 365.12 77.56Z" fill="#DEDEDE"/>
<path d="M412.13 29.73H423.97L449.82 68.12V29.73H462.7V90.66H450.77L424.92 52.27V90.66H412.12V29.73H412.13Z" fill="#DEDEDE"/>
</svg>
